<svg height="512pt" viewBox="0 0 512 511" width="512pt" xmlns="http://www.w3.org/2000/svg"><path d="m135.140625 327.410156v-142.273437l147.941406-85.339844c9.996094-5.765625 22.484375 1.449219 22.484375 12.988281v286.976563c0 11.539062-12.488281 18.753906-22.484375 12.988281zm0 0" fill="#8f9aa1"/><path d="m190.65625 194.492188v123.566406c0 16.558594-13.425781 29.984375-29.984375 29.984375h-45.925781c-8.28125 0-14.992188-6.710938-14.992188-14.992188v-153.554687c0-8.277344 6.710938-14.992188 14.992188-14.992188h45.925781c16.558594 0 29.984375 13.425782 29.984375 29.988282zm0 0" fill="#8f9aa1"/><g fill="#666e73"><path d="m160.65625 164.503906h-10.839844l.839844 153.566406c0 16.554688-13.429688 29.972657-30 29.972657h40c16.570312 0 30-13.417969 30-29.972657v-123.59375c0-16.550781-13.429688-29.972656-30-29.972656zm0 0"/><path d="m283.066406 99.808594-17.75 10.238281c.160156.882813.25 1.792969.25 2.738281v286.976563c0 .945312-.089844 1.859375-.25 2.742187l17.75 10.238282c10 5.769531 22.5-1.441407 22.5-12.980469v-286.976563c0-11.535156-12.5-18.746094-22.5-12.976562zm0 0"/><path d="m344.171875 147.964844c0-3.71875 1.378906-7.445313 4.152344-10.351563 5.726562-5.984375 15.21875-6.199219 21.207031-.480469 32.90625 31.414063 51.027344 73.746094 51.027344 119.203126 0 39.140624-13.445313 75.980468-38.191406 105.519531l-23.074219-19.164063c20.261719-24.171875 31.265625-54.320312 31.265625-86.355468 0-37.191407-14.828125-71.828126-41.75-97.53125-3.082032-2.945313-4.636719-6.890626-4.636719-10.839844zm0 0"/></g><path d="m256 .5c-141.386719 0-256 114.515625-256 255.773438 0 141.261718 114.613281 255.773437 256 255.773437s256-114.511719 256-255.773437c0-141.257813-114.613281-255.773438-256-255.773438zm-216.117188 255.773438c0-52.304688 18.613282-100.261719 49.585938-137.625l304.28125 304.011718c-37.398438 30.941406-85.398438 49.539063-137.75 49.539063-119.359375 0-216.117188-96.671875-216.117188-215.925781zm382.191407 138.167968-304.363281-304.09375c37.476562-31.214844 85.683593-50 138.289062-50 119.359375 0 216.117188 96.671875 216.117188 215.925782 0 52.558593-18.800782 100.726562-50.042969 138.167968zm0 0" fill="#e5554e"/><path d="m256 .5c-6.710938 0-13.359375.261719-19.941406.769531 130.183594 10.019531 233.082031 117.335938 235.984375 249.285157.097656 3.71875.101562 7.441406.003906 11.164062-2.765625 132.074219-105.710937 239.53125-235.988281 249.5625 6.578125.503906 13.230468.765625 19.941406.765625 141.386719 0 256-114.511719 256-255.773437 0-141.257813-114.613281-255.773438-256-255.773438zm0 0" fill="#c62430"/></svg>