<?xml version="1.0" encoding="UTF-8" standalone="no"?>
<svg
   xmlns:dc="http://purl.org/dc/elements/1.1/"
   xmlns:cc="http://creativecommons.org/ns#"
   xmlns:rdf="http://www.w3.org/1999/02/22-rdf-syntax-ns#"
   xmlns:svg="http://www.w3.org/2000/svg"
   xmlns="http://www.w3.org/2000/svg"
   xmlns:sodipodi="http://sodipodi.sourceforge.net/DTD/sodipodi-0.dtd"
   xmlns:inkscape="http://www.inkscape.org/namespaces/inkscape"
   height="512pt"
   viewBox="0 0 512 511"
   width="512pt"
   version="1.1"
   id="svg18"
   sodipodi:docname="sound.svg"
   inkscape:version="1.0.2-2 (e86c870879, 2021-01-15)">
  <metadata
     id="metadata24">
    <rdf:RDF>
      <cc:Work
         rdf:about="">
        <dc:format>image/svg+xml</dc:format>
        <dc:type
           rdf:resource="http://purl.org/dc/dcmitype/StillImage" />
      </cc:Work>
    </rdf:RDF>
  </metadata>
  <defs
     id="defs22" />
  <sodipodi:namedview
     pagecolor="#ffffff"
     bordercolor="#666666"
     borderopacity="1"
     objecttolerance="10"
     gridtolerance="10"
     guidetolerance="10"
     inkscape:pageopacity="0"
     inkscape:pageshadow="2"
     inkscape:window-width="1920"
     inkscape:window-height="1017"
     id="namedview20"
     showgrid="false"
     inkscape:zoom="0.88043081"
     inkscape:cx="206.02296"
     inkscape:cy="394.22792"
     inkscape:window-x="-8"
     inkscape:window-y="-8"
     inkscape:window-maximized="1"
     inkscape:current-layer="svg18" />
  <path
     d="m135.140625 327.410156v-142.273437l147.941406-85.339844c9.996094-5.765625 22.484375 1.449219 22.484375 12.988281v286.976563c0 11.539062-12.488281 18.753906-22.484375 12.988281zm0 0"
     fill="#8f9aa1"
     id="path2" />
  <path
     d="m190.65625 194.492188v123.566406c0 16.558594-13.425781 29.984375-29.984375 29.984375h-45.925781c-8.28125 0-14.992188-6.710938-14.992188-14.992188v-153.554687c0-8.277344 6.710938-14.992188 14.992188-14.992188h45.925781c16.558594 0 29.984375 13.425782 29.984375 29.988282zm0 0"
     fill="#8f9aa1"
     id="path4" />
  <g
     fill="#666e73"
     id="g12">
    <path
       d="m160.65625 164.503906h-10.839844l.839844 153.566406c0 16.554688-13.429688 29.972657-30 29.972657h40c16.570312 0 30-13.417969 30-29.972657v-123.59375c0-16.550781-13.429688-29.972656-30-29.972656zm0 0"
       id="path6" />
    <path
       d="m283.066406 99.808594-17.75 10.238281c.160156.882813.25 1.792969.25 2.738281v286.976563c0 .945312-.089844 1.859375-.25 2.742187l17.75 10.238282c10 5.769531 22.5-1.441407 22.5-12.980469v-286.976563c0-11.535156-12.5-18.746094-22.5-12.976562zm0 0"
       id="path8" />
    <path
       d="m344.171875 147.964844c0-3.71875 1.378906-7.445313 4.152344-10.351563 5.726562-5.984375 15.21875-6.199219 21.207031-.480469 32.90625 31.414063 51.027344 73.746094 51.027344 119.203126 0 39.140624-13.445313 75.980468-38.191406 105.519531l-23.074219-19.164063c20.261719-24.171875 31.265625-54.320312 31.265625-86.355468 0-37.191407-14.828125-71.828126-41.75-97.53125-3.082032-2.945313-4.636719-6.890626-4.636719-10.839844zm0 0"
       id="path10" />
  </g>
</svg>
