<?xml version="1.0" encoding="UTF-8" standalone="no"?>
<svg
   xmlns:dc="http://purl.org/dc/elements/1.1/"
   xmlns:cc="http://creativecommons.org/ns#"
   xmlns:rdf="http://www.w3.org/1999/02/22-rdf-syntax-ns#"
   xmlns:svg="http://www.w3.org/2000/svg"
   xmlns="http://www.w3.org/2000/svg"
   xmlns:sodipodi="http://sodipodi.sourceforge.net/DTD/sodipodi-0.dtd"
   xmlns:inkscape="http://www.inkscape.org/namespaces/inkscape"
   version="1.0"
   width="3632.000000pt"
   height="1032.000000pt"
   viewBox="0 0 3632.000000 1032.000000"
   preserveAspectRatio="xMidYMid meet"
   id="svg122"
   sodipodi:docname="weyland-yutani-logo-by-synthetic-dreamer1.svg"
   inkscape:version="1.0.2-2 (e86c870879, 2021-01-15)">
  <defs
     id="defs126" />
  <sodipodi:namedview
     pagecolor="#ffffff"
     bordercolor="#666666"
     borderopacity="1"
     objecttolerance="10"
     gridtolerance="10"
     guidetolerance="10"
     inkscape:pageopacity="0"
     inkscape:pageshadow="2"
     inkscape:window-width="1920"
     inkscape:window-height="1017"
     id="namedview124"
     showgrid="false"
     inkscape:zoom="0.24118943"
     inkscape:cx="2263.7808"
     inkscape:cy="688"
     inkscape:window-x="-8"
     inkscape:window-y="-8"
     inkscape:window-maximized="1"
     inkscape:current-layer="svg122" />
  <metadata
     id="metadata2">
Created by potrace 1.16, written by Peter Selinger 2001-2019
<rdf:RDF>
  <cc:Work
     rdf:about="">
    <dc:format>image/svg+xml</dc:format>
    <dc:type
       rdf:resource="http://purl.org/dc/dcmitype/StillImage" />
  </cc:Work>
</rdf:RDF>
</metadata>
  <g
     transform="translate(0.000000,1032.000000) scale(0.100000,-0.100000)"
     fill="#000000"
     stroke="none"
     id="g120"
     style="fill:#fefeff;fill-opacity:1">
    <path
       d="M2145 9100 c-187 -49 -282 -115 -335 -232 -16 -36 -20 -65 -19 -173 0 -145 10 -188 52 -219 l28 -21 7942 -5 c5812 -4 7950 -8 7972 -16 99 -37 166 -87 215 -164 50 -78 80 -78 130 1 49 76 116 126 215 163 22 8 2160 12 7972 16 l7942 5 28 21 c42 31 52 74 52 219 1 108 -3 137 -19 173 -47 103 -122 162 -271 214 l-94 33 -7675 3 c-5306 2 -7696 -1 -7744 -8 -184 -28 -319 -112 -438 -271 l-34 -47 -25 36 c-105 155 -256 252 -440 281 -44 8 -2448 11 -7724 10 -7412 0 -7662 -1 -7730 -19z"
       id="path4"
       style="fill:#fefeff;fill-opacity:1" />
    <path
       d="M1974 8119 c-101 -23 -113 -100 -38 -262 72 -157 211 -433 262 -520 53 -90 122 -158 180 -175 80 -24 340 -12 1317 62 1047 79 1019 75 1050 136 29 56 30 51 -106 434 -54 152 -70 186 -106 226 -60 67 -119 89 -262 101 -153 11 -2243 10 -2297 -2z"
       id="path6"
       style="fill:#fefeff;fill-opacity:1" />
    <path
       d="M5072 8115 c-61 -19 -92 -42 -108 -80 -25 -60 -17 -111 46 -295 77 -223 81 -231 136 -291 58 -61 107 -77 260 -86 131 -7 56 -12 2469 162 1018 73 1942 138 2055 145 370 21 441 37 455 100 7 33 -19 248 -36 288 -5 13 -29 33 -57 45 l-47 22 -2565 2 c-2125 2 -2572 0 -2608 -12z"
       id="path8"
       style="fill:#fefeff;fill-opacity:1" />
    <path
       d="M10893 8115 c-74 -32 -91 -120 -57 -303 25 -131 80 -371 115 -502 31 -112 122 -338 200 -490 108 -214 207 -356 345 -496 386 -391 801 -618 1329 -727 98 -20 126 -21 1846 -24 l1747 -3 -19 72 c-87 329 -74 707 35 1031 213 635 757 1091 1409 1181 60 8 115 20 123 27 17 14 18 63 3 110 -19 56 -66 97 -137 119 -63 20 -109 20 -3486 20 -2887 -1 -3426 -3 -3453 -15z"
       id="path10"
       style="fill:#fefeff;fill-opacity:1" />
    <path
       d="M18295 8110 c-67 -22 -115 -64 -134 -119 -15 -47 -14 -96 3 -110 8 -7 63 -19 123 -27 887 -123 1540 -916 1500 -1824 -7 -145 -25 -271 -56 -388 l-19 -72 1747 3 c1720 3 1748 4 1846 24 528 109 943 336 1329 727 138 140 237 282 345 496 78 152 169 378 200 490 35 131 90 371 115 502 25 136 22 217 -10 266 -36 55 198 52 -3506 51 -3341 0 -3424 -1 -3483 -19z"
       id="path12"
       style="fill:#fefeff;fill-opacity:1" />
    <path
       d="M25915 8120 c-71 -8 -122 -32 -135 -63 -16 -40 -42 -255 -35 -287 14 -63 85 -79 455 -100 113 -7 1038 -72 2055 -145 2413 -174 2338 -169 2469 -162 153 9 202 25 260 86 55 60 59 68 137 294 53 154 61 187 57 232 -6 68 -28 102 -86 128 l-47 22 -2535 1 c-1394 1 -2562 -2 -2595 -6z"
       id="path14"
       style="fill:#fefeff;fill-opacity:1" />
    <path
       d="M31840 8120 c-121 -9 -186 -36 -243 -100 -36 -40 -52 -74 -106 -226 -136 -383 -135 -378 -106 -434 31 -61 3 -57 1050 -136 977 -74 1237 -86 1317 -62 58 17 127 85 180 175 51 87 190 363 262 520 77 167 64 239 -46 262 -56 13 -2150 13 -2308 1z"
       id="path16"
       style="fill:#fefeff;fill-opacity:1" />
    <path
       d="M17925 7544 c-113 -17 -209 -39 -288 -66 -454 -152 -802 -532 -922 -1008 -139 -553 59 -1143 503 -1493 92 -72 149 -107 272 -166 364 -173 786 -173 1150 0 123 59 180 94 272 166 444 350 642 940 503 1493 -136 540 -562 950 -1096 1055 -81 16 -333 28 -394 19z"
       id="path18"
       style="fill:#fefeff;fill-opacity:1" />
    <path
       d="M10285 7523 c-16 -2 -1060 -77 -2320 -168 -1259 -90 -2335 -169 -2390 -176 -284 -34 -286 -131 -13 -484 106 -137 247 -284 296 -309 56 -29 146 -31 278 -7 1238 221 4244 766 4289 777 106 26 115 60 62 239 -31 106 -34 110 -67 122 -34 12 -74 13 -135 6z"
       id="path20"
       style="fill:#fefeff;fill-opacity:1" />
    <path
       d="M25710 7517 c-33 -12 -36 -16 -67 -122 -53 -179 -44 -213 62 -239 45 -11 3051 -556 4289 -777 132 -24 222 -22 278 7 80 41 330 332 440 513 37 61 52 97 56 132 9 92 -43 128 -213 148 -55 7 -1130 86 -2390 176 -1259 91 -2319 167 -2355 170 -40 3 -79 0 -100 -8z"
       id="path22"
       style="fill:#fefeff;fill-opacity:1" />
    <path
       d="M4535 7103 c-166 -9 -1698 -124 -1774 -133 -108 -12 -183 -34 -206 -60 -12 -13 -18 -36 -18 -65 0 -39 10 -60 83 -172 432 -660 1057 -1266 1722 -1669 109 -66 182 -94 249 -94 84 0 262 46 909 234 926 269 848 242 870 296 17 42 -10 84 -85 135 -523 351 -900 751 -1234 1311 -80 132 -129 187 -187 204 -42 13 -215 20 -329 13z"
       id="path24"
       style="fill:#fefeff;fill-opacity:1" />
    <path
       d="M31295 7097 c-94 -25 -115 -45 -215 -211 -340 -565 -712 -960 -1235 -1311 -75 -51 -102 -93 -85 -135 22 -54 -56 -27 870 -296 647 -188 825 -234 909 -234 67 0 140 28 249 94 665 403 1290 1009 1722 1669 73 112 83 133 83 172 0 57 -21 81 -88 100 -78 23 -153 30 -1030 95 -915 67 -1105 76 -1180 57z"
       id="path26"
       style="fill:#fefeff;fill-opacity:1" />
    <path
       d="M10450 6976 c-89 -18 -584 -108 -2450 -447 -877 -159 -1617 -296 -1645 -305 -82 -26 -125 -59 -125 -95 0 -60 37 -104 195 -228 98 -76 242 -166 386 -238 81 -42 99 -47 172 -51 57 -3 111 2 177 16 52 11 829 232 1725 491 897 259 1648 476 1670 482 78 22 136 58 151 94 20 50 18 63 -25 157 -59 127 -101 150 -231 124z"
       id="path28"
       style="fill:#fefeff;fill-opacity:1" />
    <path
       d="M25560 6983 c-46 -18 -74 -51 -111 -131 -43 -94 -45 -107 -25 -157 15 -36 73 -72 151 -94 22 -6 774 -223 1670 -482 897 -259 1673 -480 1725 -491 66 -14 120 -19 177 -16 73 4 91 9 172 51 200 101 397 233 514 345 74 71 88 135 38 172 -32 22 -93 46 -156 60 -22 5 -911 167 -1975 360 -1064 193 -1966 357 -2005 365 -97 19 -157 25 -175 18z"
       id="path30"
       style="fill:#fefeff;fill-opacity:1" />
    <path
       d="M10670 6445 c-58 -13 -751 -209 -1540 -437 -789 -228 -1491 -430 -1558 -448 -108 -30 -127 -38 -148 -65 -28 -38 -31 -85 -6 -108 56 -51 569 -230 782 -273 254 -52 269 -48 1125 324 369 160 888 385 1155 501 340 147 492 218 508 236 16 19 22 39 22 73 0 41 -7 57 -51 117 -84 115 -104 121 -289 80z"
       id="path32"
       style="fill:#fefeff;fill-opacity:1" />
    <path
       d="M25248 6452 c-15 -10 -49 -49 -77 -87 -44 -60 -51 -76 -51 -117 0 -34 6 -54 23 -73 15 -18 167 -89 507 -236 267 -116 787 -341 1155 -501 856 -372 871 -376 1125 -324 213 43 726 222 782 273 25 23 22 70 -6 108 -21 27 -40 35 -148 65 -67 18 -769 220 -1558 447 -789 228 -1486 426 -1548 439 -134 29 -168 30 -204 6z"
       id="path34"
       style="fill:#fefeff;fill-opacity:1" />
    <path
       d="M11135 6031 c-48 -20 -2057 -892 -2115 -919 -110 -50 -145 -101 -102 -150 20 -24 124 -46 407 -88 149 -22 218 -27 400 -28 295 -1 267 -12 702 280 764 514 886 597 910 617 32 28 53 76 53 124 0 32 -7 44 -52 86 -29 28 -66 58 -83 68 -31 20 -85 24 -120 10z"
       id="path36"
       style="fill:#fefeff;fill-opacity:1" />
    <path
       d="M24875 6022 c-16 -10 -54 -41 -82 -69 -46 -42 -53 -54 -53 -86 0 -48 21 -96 53 -124 24 -20 146 -103 910 -617 435 -292 407 -281 702 -280 182 1 251 6 400 28 283 42 387 64 408 88 42 49 7 100 -103 150 -36 17 -526 230 -1090 475 -699 304 -1039 447 -1070 450 -33 3 -53 -1 -75 -15z"
       id="path38"
       style="fill:#fefeff;fill-opacity:1" />
    <path
       d="M11623 5679 c-24 -4 -57 -15 -75 -24 -18 -8 -278 -181 -578 -383 -547 -369 -595 -406 -588 -456 2 -10 15 -28 29 -39 24 -17 52 -20 225 -28 110 -4 323 -10 474 -11 l275 -3 55 31 c43 24 112 93 319 320 149 162 272 306 282 328 34 76 -12 129 -179 209 -124 59 -171 70 -239 56z"
       id="path40"
       style="fill:#fefeff;fill-opacity:1" />
    <path
       d="M24404 5680 c-57 -12 -253 -112 -286 -147 -42 -44 -49 -73 -29 -119 10 -22 133 -166 282 -328 207 -227 276 -296 319 -320 l55 -31 275 3 c151 1 364 7 474 11 173 8 201 11 225 28 72 54 37 93 -279 307 -666 449 -857 574 -890 584 -57 17 -102 20 -146 12z"
       id="path42"
       style="fill:#fefeff;fill-opacity:1" />
    <path
       d="M12285 5371 c-30 -13 -100 -84 -260 -260 -121 -133 -228 -258 -237 -279 -18 -38 -16 -81 5 -94 7 -4 134 -8 283 -8 366 0 348 -7 554 226 237 269 241 316 29 375 -222 63 -305 72 -374 40z"
       id="path44"
       style="fill:#fefeff;fill-opacity:1" />
    <path
       d="M23655 5378 c-333 -79 -376 -108 -318 -217 33 -61 283 -348 332 -380 71 -48 97 -51 385 -51 149 0 276 4 283 8 21 13 23 56 5 94 -9 21 -116 146 -237 279 -160 176 -230 247 -260 260 -44 20 -124 23 -190 7z"
       id="path46"
       style="fill:#fefeff;fill-opacity:1" />
    <path
       d="M6535 5245 c-49 -8 -166 -38 -260 -66 -93 -27 -422 -122 -730 -211 -600 -172 -605 -174 -605 -237 0 -40 39 -71 165 -134 419 -208 1130 -446 1805 -602 425 -99 1194 -235 1327 -235 156 0 157 1 672 345 439 293 467 313 475 347 11 45 -9 82 -57 103 -18 8 -120 28 -227 45 -747 119 -1452 311 -2008 546 -95 41 -200 81 -234 90 -88 22 -217 26 -323 9z"
       id="path48"
       style="fill:#fefeff;fill-opacity:1" />
    <path
       d="M29355 5253 c-72 -10 -156 -38 -317 -107 -556 -235 -1261 -427 -2008 -546 -107 -17 -209 -37 -227 -45 -48 -21 -68 -58 -57 -103 8 -34 36 -54 475 -347 515 -344 516 -345 672 -345 133 0 902 136 1327 235 675 156 1386 394 1805 602 126 63 165 94 165 134 0 63 -5 65 -605 237 -308 89 -636 184 -730 211 -225 67 -381 90 -500 74z"
       id="path50"
       style="fill:#fefeff;fill-opacity:1" />
    <path
       d="M13167 5236 c-26 -7 -62 -26 -79 -42 -67 -63 -331 -360 -339 -383 -27 -68 14 -81 250 -81 183 0 289 10 344 32 27 10 313 320 351 380 24 38 10 73 -39 94 -46 19 -417 19 -488 0z"
       id="path52"
       style="fill:#fefeff;fill-opacity:1" />
    <path
       d="M14067 5236 c-26 -7 -62 -26 -79 -42 -58 -55 -320 -359 -329 -383 -14 -34 -3 -58 33 -70 39 -14 302 -14 388 -1 95 15 114 25 177 98 32 37 106 119 164 183 59 64 110 126 114 138 9 29 -11 60 -50 77 -45 18 -349 18 -418 0z"
       id="path54"
       style="fill:#fefeff;fill-opacity:1" />
    <path
       d="M14897 5236 c-26 -7 -62 -26 -79 -42 -58 -55 -320 -359 -329 -383 -14 -34 -3 -58 33 -70 39 -14 302 -14 388 -1 95 15 114 25 177 98 32 37 106 119 164 183 59 64 110 126 114 138 9 29 -11 60 -50 77 -45 18 -349 18 -418 0z"
       id="path56"
       style="fill:#fefeff;fill-opacity:1" />
    <path
       d="M15727 5236 c-26 -7 -62 -26 -79 -42 -58 -55 -320 -359 -329 -383 -25 -65 16 -81 210 -81 146 0 252 11 303 31 28 11 368 390 368 410 0 24 -24 52 -55 65 -45 18 -349 18 -418 0z"
       id="path58"
       style="fill:#fefeff;fill-opacity:1" />
    <path
       d="M19983 5235 c-30 -13 -53 -41 -53 -64 0 -20 340 -399 368 -410 51 -20 157 -31 303 -31 194 0 235 16 210 81 -10 27 -279 338 -333 386 -23 19 -56 35 -88 42 -75 16 -367 14 -407 -4z"
       id="path60"
       style="fill:#fefeff;fill-opacity:1" />
    <path
       d="M20813 5235 c-37 -16 -57 -47 -48 -76 4 -12 55 -74 114 -138 58 -64 132 -146 164 -183 63 -73 82 -83 177 -98 86 -13 349 -13 388 1 36 12 47 36 33 70 -10 27 -279 338 -333 386 -23 19 -56 35 -88 42 -75 16 -367 14 -407 -4z"
       id="path62"
       style="fill:#fefeff;fill-opacity:1" />
    <path
       d="M21643 5235 c-37 -16 -57 -47 -48 -76 4 -12 55 -74 114 -138 58 -64 132 -146 164 -183 63 -73 82 -83 177 -98 86 -13 349 -13 388 1 36 12 47 36 33 70 -10 27 -279 338 -333 386 -23 19 -56 35 -88 42 -75 16 -367 14 -407 -4z"
       id="path64"
       style="fill:#fefeff;fill-opacity:1" />
    <path
       d="M22473 5235 c-47 -20 -61 -55 -37 -93 38 -60 324 -370 351 -380 55 -22 161 -32 344 -32 236 0 277 13 250 81 -10 26 -284 334 -343 386 -23 19 -56 35 -88 42 -77 17 -437 14 -477 -4z"
       id="path66"
       style="fill:#fefeff;fill-opacity:1" />
    <path
       d="M16473 5197 c-40 -22 -303 -349 -317 -394 -10 -30 2 -50 36 -62 43 -15 604 -15 647 0 34 12 53 44 45 77 -3 11 -37 47 -75 82 -42 37 -100 105 -145 171 -42 60 -82 116 -91 124 -17 18 -70 19 -100 2z"
       id="path68"
       style="fill:#fefeff;fill-opacity:1" />
    <path
       d="M19557 5195 c-9 -8 -49 -64 -91 -124 -45 -66 -103 -134 -145 -171 -38 -35 -72 -71 -75 -82 -8 -33 11 -65 45 -77 43 -15 604 -15 647 0 34 12 47 35 35 65 -18 48 -278 370 -316 391 -30 17 -83 16 -100 -2z"
       id="path70"
       style="fill:#fefeff;fill-opacity:1" />
    <path
       d="M9905 4450 c-158 -19 -249 -68 -717 -382 -372 -250 -378 -256 -378 -324 0 -43 37 -55 232 -75 165 -17 273 -19 1073 -19 977 0 962 -1 1048 59 50 35 133 120 293 301 239 270 244 277 244 334 0 59 -26 66 -242 66 -276 0 -872 21 -879 32 -8 12 -585 19 -674 8z"
       id="path72"
       style="fill:#fefeff;fill-opacity:1" />
    <path
       d="M25650 4453 c-52 -2 -97 -8 -100 -12 -6 -10 -612 -31 -878 -31 -216 0 -242 -7 -242 -66 0 -57 5 -64 244 -334 160 -181 243 -266 293 -301 86 -60 71 -59 1048 -59 800 0 908 2 1073 19 195 20 232 32 232 75 0 68 -6 74 -378 324 -375 252 -501 326 -617 362 -63 20 -95 22 -325 25 -140 1 -298 0 -350 -2z"
       id="path74"
       style="fill:#fefeff;fill-opacity:1" />
    <path
       d="M12131 4399 c-81 -14 -137 -51 -226 -151 -397 -448 -404 -456 -412 -519 -5 -36 -3 -44 18 -60 23 -18 61 -19 779 -19 823 0 825 0 910 56 40 27 450 481 503 557 18 27 27 53 27 78 0 72 35 69 -802 68 -409 -1 -767 -5 -797 -10z"
       id="path76"
       style="fill:#fefeff;fill-opacity:1" />
    <path
       d="M14162 4399 c-29 -5 -69 -18 -90 -28 -39 -21 -132 -113 -223 -221 -30 -36 -110 -128 -178 -205 -126 -142 -151 -181 -151 -234 0 -62 -14 -61 643 -61 637 0 663 2 742 52 37 24 459 490 508 561 18 27 27 53 27 78 0 71 18 69 -642 68 -321 -1 -607 -5 -636 -10z"
       id="path78"
       style="fill:#fefeff;fill-opacity:1" />
    <path
       d="M15862 4399 c-99 -17 -138 -49 -304 -246 -23 -28 -101 -118 -172 -200 -131 -150 -156 -189 -156 -242 0 -61 1 -61 493 -61 475 0 516 4 592 52 37 24 459 490 508 561 18 27 27 53 27 78 0 69 2 69 -497 68 -241 -1 -462 -5 -491 -10z"
       id="path80"
       style="fill:#fefeff;fill-opacity:1" />
    <path
       d="M17313 4394 c-150 -22 -133 -7 -503 -419 -153 -171 -180 -210 -180 -264 0 -57 18 -61 317 -61 314 1 390 11 503 66 59 30 97 59 176 138 109 109 169 191 265 365 68 124 70 149 19 176 -38 20 -460 19 -597 -1z"
       id="path82"
       style="fill:#fefeff;fill-opacity:1" />
    <path
       d="M18218 4394 c-49 -26 -46 -52 21 -175 96 -174 156 -256 265 -365 79 -79 117 -108 176 -138 113 -55 189 -65 503 -66 299 0 317 4 317 61 0 54 -27 93 -180 264 -278 309 -332 365 -371 386 -65 33 -221 49 -474 48 -184 0 -235 -3 -257 -15z"
       id="path84"
       style="fill:#fefeff;fill-opacity:1" />
    <path
       d="M19308 4394 c-23 -12 -28 -21 -28 -53 0 -25 9 -52 28 -78 48 -71 470 -537 507 -561 76 -48 117 -52 592 -52 492 0 493 0 493 61 0 53 -25 92 -156 242 -71 82 -149 172 -172 200 -108 129 -177 199 -212 217 -67 34 -152 40 -595 40 -362 -1 -434 -3 -457 -16z"
       id="path86"
       style="fill:#fefeff;fill-opacity:1" />
    <path
       d="M20718 4394 c-23 -12 -28 -21 -28 -53 0 -25 9 -52 28 -78 48 -71 470 -537 507 -561 79 -50 105 -52 742 -52 657 0 643 -1 643 61 0 53 -25 92 -151 234 -68 77 -148 169 -178 205 -90 107 -184 200 -222 220 -68 36 -149 40 -739 40 -490 -1 -579 -3 -602 -16z"
       id="path88"
       style="fill:#fefeff;fill-opacity:1" />
    <path
       d="M22428 4394 c-23 -12 -28 -21 -28 -53 0 -25 9 -51 28 -78 52 -76 462 -530 502 -557 85 -56 87 -56 910 -56 718 0 756 1 779 19 21 16 23 24 18 60 -8 63 -15 71 -412 519 -92 103 -144 137 -235 151 -41 7 -333 11 -800 11 -632 -1 -739 -3 -762 -16z"
       id="path90"
       style="fill:#fefeff;fill-opacity:1" />
    <path
       d="M20640 2573 c-45 -14 -61 -29 -70 -64 -8 -29 -7 -46 4 -71 8 -20 161 -176 374 -383 l361 -350 0 -267 c1 -266 1 -267 25 -295 21 -24 32 -28 95 -31 88 -5 136 3 162 29 18 18 19 35 19 288 l0 269 370 362 c314 308 371 368 376 398 15 81 -34 122 -148 122 -37 0 -79 -5 -95 -11 -15 -5 -169 -150 -341 -322 l-312 -312 -313 312 c-171 172 -325 317 -340 323 -28 10 -139 13 -167 3z"
       id="path92"
       style="fill:#fefeff;fill-opacity:1" />
    <path
       d="M22514 2566 c-17 -7 -34 -21 -38 -31 -3 -9 -6 -266 -6 -570 0 -533 1 -556 20 -609 38 -99 140 -173 295 -213 63 -16 122 -18 575 -18 453 0 513 2 583 18 103 24 208 78 251 129 72 83 70 69 74 689 l3 557 -25 28 c-22 27 -30 29 -108 32 -108 5 -152 -11 -162 -58 -3 -18 -6 -263 -6 -544 l0 -512 -32 -31 c-84 -79 -133 -85 -614 -81 -439 5 -453 7 -525 79 l-39 39 0 533 c0 628 13 569 -128 574 -60 2 -97 -1 -118 -11z"
       id="path94"
       style="fill:#fefeff;fill-opacity:1" />
    <path
       d="M24405 2566 c-16 -12 -20 -29 -23 -94 -6 -129 -26 -122 348 -122 l310 0 0 -589 0 -590 24 -28 c22 -25 31 -28 101 -31 97 -5 152 10 165 44 6 15 10 263 10 610 l0 584 314 0 c345 0 338 -1 351 61 10 43 -3 136 -21 154 -22 22 -1550 23 -1579 1z"
       id="path96"
       style="fill:#fefeff;fill-opacity:1" />
    <path
       d="M6203 2564 c-12 -3 -33 -16 -47 -29 -54 -50 -52 -58 240 -707 147 -326 277 -615 291 -641 31 -61 80 -86 170 -87 79 0 137 23 162 64 10 17 117 242 236 499 120 257 222 464 226 460 4 -4 107 -221 228 -482 121 -261 230 -484 242 -497 58 -62 233 -59 291 3 14 16 154 309 312 652 292 638 304 669 276 721 -28 53 -204 68 -254 21 -13 -13 -30 -37 -37 -54 -6 -18 -20 -52 -31 -77 -11 -25 -24 -54 -28 -65 -42 -97 -54 -126 -72 -165 -11 -25 -24 -54 -28 -65 -42 -97 -54 -126 -72 -165 -22 -49 -26 -60 -58 -135 -12 -27 -27 -63 -35 -80 -8 -16 -22 -50 -33 -75 -11 -25 -27 -61 -36 -82 -9 -20 -16 -40 -16 -45 0 -4 -8 -18 -18 -30 l-17 -23 -21 43 c-11 23 -33 69 -48 102 -15 33 -38 83 -50 110 -13 28 -94 208 -181 400 -87 193 -166 364 -177 382 -24 41 -71 56 -159 51 -59 -3 -73 -8 -98 -32 -16 -15 -41 -56 -56 -89 -15 -34 -40 -89 -55 -122 -15 -33 -40 -87 -55 -120 -15 -33 -38 -84 -51 -112 -13 -29 -35 -76 -48 -105 -44 -96 -83 -182 -111 -243 -15 -33 -38 -85 -52 -115 -33 -72 -64 -133 -73 -144 -5 -4 -11 3 -15 15 -4 13 -21 53 -37 89 -16 36 -35 80 -43 98 -8 18 -21 47 -29 65 -8 17 -22 52 -31 77 -15 40 -28 70 -80 185 -7 17 -21 50 -30 75 -9 25 -28 70 -41 100 -24 52 -33 72 -67 153 -8 17 -27 64 -42 102 -42 105 -59 119 -148 121 -39 1 -82 0 -94 -2z"
       id="path98"
       style="fill:#fefeff;fill-opacity:1" />
    <path
       d="M9329 2555 c-129 -20 -213 -58 -281 -125 -33 -33 -61 -73 -69 -96 -10 -29 -14 -151 -17 -478 -3 -503 -2 -510 72 -593 54 -59 119 -96 223 -125 75 -21 98 -22 685 -26 713 -4 648 -15 648 117 0 61 -4 82 -17 92 -13 11 -122 15 -577 19 -634 6 -632 6 -707 81 l-39 39 0 125 0 125 653 0 c549 0 656 2 673 14 16 12 19 27 19 101 -1 74 -4 89 -20 101 -16 12 -130 14 -672 14 l-653 0 0 125 c0 147 11 182 67 219 64 42 154 56 379 56 157 0 204 3 220 14 16 12 19 27 19 101 -1 74 -4 89 -20 101 -26 19 -463 18 -586 -1z"
       id="path100"
       style="fill:#fefeff;fill-opacity:1" />
    <path
       d="M10310 2553 c-45 -14 -61 -29 -70 -64 -8 -29 -7 -46 4 -71 8 -20 161 -176 374 -383 l361 -350 0 -267 c1 -266 1 -267 25 -295 21 -24 32 -28 95 -31 88 -5 136 3 162 29 18 18 19 35 19 288 l0 269 370 362 c314 308 371 368 376 398 15 81 -34 122 -148 122 -37 0 -79 -5 -95 -11 -15 -5 -169 -150 -341 -322 l-312 -312 -313 312 c-171 172 -325 317 -340 323 -28 10 -139 13 -167 3z"
       id="path102"
       style="fill:#fefeff;fill-opacity:1" />
    <path
       d="M12184 2546 c-17 -7 -34 -21 -38 -31 -3 -9 -6 -266 -6 -570 0 -533 1 -556 20 -609 14 -36 36 -68 69 -99 59 -55 110 -82 209 -110 74 -20 100 -21 697 -25 l621 -3 19 21 c16 18 20 36 19 96 -2 124 58 112 -613 116 -648 4 -636 3 -712 79 l-39 39 0 533 c0 628 13 569 -128 574 -60 2 -97 -1 -118 -11z"
       id="path104"
       style="fill:#fefeff;fill-opacity:1" />
    <path
       d="M14725 2541 c-38 -17 -74 -68 -455 -647 -360 -546 -415 -635 -418 -673 -2 -24 2 -54 9 -67 27 -51 149 -82 212 -53 15 7 67 78 138 190 l114 179 527 0 527 0 121 -179 c73 -106 132 -183 146 -190 38 -17 114 -13 161 8 62 29 89 92 62 144 -7 12 -208 303 -447 646 -393 562 -440 626 -477 642 -54 25 -166 25 -220 0z m306 -572 l179 -264 -179 -3 c-99 -1 -263 -1 -364 0 l-184 3 176 272 c98 153 179 269 184 264 4 -4 89 -127 188 -272z"
       id="path106"
       style="fill:#fefeff;fill-opacity:1" />
    <path
       d="M16045 2550 c-52 -20 -50 8 -50 -726 l0 -683 22 -22 c16 -17 37 -23 91 -27 86 -6 137 3 163 29 18 18 19 37 19 508 0 270 3 492 8 495 4 2 280 -222 612 -499 333 -277 619 -511 637 -520 37 -18 155 -20 202 -4 17 6 36 19 41 29 6 12 10 274 10 699 0 661 -1 682 -19 700 -26 26 -77 35 -163 29 -122 -9 -113 37 -116 -553 -2 -278 -5 -505 -7 -505 -3 0 -273 230 -601 511 -328 281 -615 520 -638 530 -43 20 -172 26 -211 9z"
       id="path108"
       style="fill:#fefeff;fill-opacity:1" />
    <path
       d="M18014 2536 l-29 -24 0 -682 0 -682 29 -24 28 -25 687 4 c599 3 695 5 756 20 103 25 186 69 239 128 77 86 78 91 74 601 -3 439 -3 443 -26 490 -46 92 -147 161 -289 195 -59 14 -160 17 -754 20 l-687 4 -28 -25z m1377 -234 c30 -12 69 -36 85 -53 l29 -30 3 -384 3 -384 -40 -40 c-75 -75 -77 -75 -668 -79 l-523 -3 0 501 0 501 528 -3 c519 -3 528 -4 583 -26z"
       id="path110"
       style="fill:#fefeff;fill-opacity:1" />
    <path
       d="M26515 2531 c-38 -17 -74 -68 -455 -647 -360 -546 -415 -635 -418 -673 -2 -24 2 -54 9 -67 27 -51 149 -82 212 -53 15 7 67 78 138 190 l114 179 527 0 527 0 121 -179 c73 -106 132 -183 146 -190 38 -17 114 -13 161 8 62 29 89 92 62 144 -7 12 -208 303 -447 646 -393 562 -440 626 -477 642 -54 25 -166 25 -220 0z m306 -572 l179 -264 -179 -3 c-99 -1 -263 -1 -364 0 l-184 3 176 272 c98 153 179 269 184 264 4 -4 89 -127 188 -272z"
       id="path112"
       style="fill:#fefeff;fill-opacity:1" />
    <path
       d="M27835 2540 c-52 -20 -50 8 -50 -726 l0 -683 22 -22 c16 -17 37 -23 91 -27 86 -6 137 3 163 29 18 18 19 37 19 508 0 270 3 492 8 495 4 2 280 -222 612 -499 333 -277 619 -511 637 -520 37 -18 155 -20 202 -4 17 6 36 19 41 29 6 12 10 274 10 699 0 661 -1 682 -19 700 -26 26 -77 35 -163 29 -122 -9 -113 37 -116 -553 -2 -278 -5 -505 -7 -505 -3 0 -273 230 -601 511 -328 281 -615 520 -638 530 -43 20 -172 26 -211 9z"
       id="path114"
       style="fill:#fefeff;fill-opacity:1" />
    <path
       d="M29834 2543 c-12 -2 -30 -13 -40 -25 -18 -19 -19 -52 -19 -704 l0 -683 22 -22 c16 -17 37 -23 91 -27 86 -6 137 3 163 29 18 18 19 39 19 700 0 425 -4 687 -10 699 -5 10 -24 23 -41 29 -31 11 -140 13 -185 4z"
       id="path116"
       style="fill:#fefeff;fill-opacity:1" />
    <path
       d="M19927 1912 c-25 -28 -24 -172 1 -195 17 -15 62 -17 435 -17 498 0 463 -9 454 123 -4 62 -10 84 -23 94 -14 10 -109 13 -434 13 -391 0 -418 -1 -433 -18z"
       id="path118"
       style="fill:#fefeff;fill-opacity:1" />
  </g>
</svg>
