<?xml version="1.0" encoding="UTF-8" standalone="no"?>
<svg
   xmlns:dc="http://purl.org/dc/elements/1.1/"
   xmlns:cc="http://creativecommons.org/ns#"
   xmlns:rdf="http://www.w3.org/1999/02/22-rdf-syntax-ns#"
   xmlns:svg="http://www.w3.org/2000/svg"
   xmlns="http://www.w3.org/2000/svg"
   xmlns:sodipodi="http://sodipodi.sourceforge.net/DTD/sodipodi-0.dtd"
   xmlns:inkscape="http://www.inkscape.org/namespaces/inkscape"
   version="1.1"
   width="512"
   height="512"
   x="0"
   y="0"
   viewBox="0 0 114.872 114.872"
   style="enable-background:new 0 0 512 512"
   xml:space="preserve"
   class=""
   id="svg40"
   sodipodi:docname="lock.svg"
   inkscape:version="1.0.2-2 (e86c870879, 2021-01-15)"><metadata
     id="metadata46"><rdf:RDF><cc:Work
         rdf:about=""><dc:format>image/svg+xml</dc:format><dc:type
           rdf:resource="http://purl.org/dc/dcmitype/StillImage" /></cc:Work></rdf:RDF></metadata><defs
     id="defs44" /><sodipodi:namedview
     pagecolor="#ffffff"
     bordercolor="#666666"
     borderopacity="1"
     objecttolerance="10"
     gridtolerance="10"
     guidetolerance="10"
     inkscape:pageopacity="0"
     inkscape:pageshadow="2"
     inkscape:window-width="1920"
     inkscape:window-height="1017"
     id="namedview42"
     showgrid="false"
     inkscape:zoom="1.6601562"
     inkscape:cx="117.15765"
     inkscape:cy="256"
     inkscape:window-x="-8"
     inkscape:window-y="-8"
     inkscape:window-maximized="1"
     inkscape:current-layer="svg40" /><circle
     r="57.436"
     cx="57.436"
     cy="57.436"
     fill="#408fcd"
     shape="circle"
     id="circle2"
     style="fill:#000c66;fill-opacity:1" /><g
     transform="matrix(0.7,0,0,0.7,17.231250000000003,17.230664062500004)"
     id="g38"
     style="fill:#ffffff;fill-opacity:0.99689448">
<g
   id="g6"
   style="fill:#ffffff;fill-opacity:0.99689448">
	<path
   d="M97.856,49.821c0.426-2.44,0.661-4.95,0.661-7.516C98.517,18.979,80.088,0,57.436,0C34.783,0,16.353,18.979,16.353,42.305   c0,2.566,0.236,5.074,0.663,7.516c-3.567,2.278-5.939,6.261-5.939,10.81v41.415c0,7.084,5.743,12.826,12.825,12.826h67.067   c7.08,0,12.822-5.742,12.822-12.826h0.004V60.631C103.795,56.083,101.425,52.099,97.856,49.821z M63.095,85.983v9   c0,3.128-2.534,5.662-5.661,5.662c-3.127,0-5.661-2.534-5.661-5.662v-9.004c-3.631-2.001-6.094-5.862-6.094-10.302   c0-6.492,5.263-11.756,11.757-11.756s11.758,5.264,11.758,11.756C69.194,80.119,66.729,83.983,63.095,85.983z M82.886,47.804   H31.985c-0.349-1.775-0.535-3.616-0.535-5.499c0-15.003,11.657-27.208,25.986-27.208c14.328,0,25.984,12.204,25.984,27.208   C83.42,44.188,83.236,46.029,82.886,47.804z"
   fill="#000000"
   data-original="#000000"
   style="fill:#ffffff;fill-opacity:0.99689448"
   class=""
   id="path4" />
</g>
<g
   id="g8"
   style="fill:#ffffff;fill-opacity:0.99689448">
</g>
<g
   id="g10"
   style="fill:#ffffff;fill-opacity:0.99689448">
</g>
<g
   id="g12"
   style="fill:#ffffff;fill-opacity:0.99689448">
</g>
<g
   id="g14"
   style="fill:#ffffff;fill-opacity:0.99689448">
</g>
<g
   id="g16"
   style="fill:#ffffff;fill-opacity:0.99689448">
</g>
<g
   id="g18"
   style="fill:#ffffff;fill-opacity:0.99689448">
</g>
<g
   id="g20"
   style="fill:#ffffff;fill-opacity:0.99689448">
</g>
<g
   id="g22"
   style="fill:#ffffff;fill-opacity:0.99689448">
</g>
<g
   id="g24"
   style="fill:#ffffff;fill-opacity:0.99689448">
</g>
<g
   id="g26"
   style="fill:#ffffff;fill-opacity:0.99689448">
</g>
<g
   id="g28"
   style="fill:#ffffff;fill-opacity:0.99689448">
</g>
<g
   id="g30"
   style="fill:#ffffff;fill-opacity:0.99689448">
</g>
<g
   id="g32"
   style="fill:#ffffff;fill-opacity:0.99689448">
</g>
<g
   id="g34"
   style="fill:#ffffff;fill-opacity:0.99689448">
</g>
<g
   id="g36"
   style="fill:#ffffff;fill-opacity:0.99689448">
</g>
</g></svg>
