<?xml version="1.0" encoding="UTF-8" standalone="no"?>
<svg
   xmlns:dc="http://purl.org/dc/elements/1.1/"
   xmlns:cc="http://creativecommons.org/ns#"
   xmlns:rdf="http://www.w3.org/1999/02/22-rdf-syntax-ns#"
   xmlns:svg="http://www.w3.org/2000/svg"
   xmlns="http://www.w3.org/2000/svg"
   xmlns:sodipodi="http://sodipodi.sourceforge.net/DTD/sodipodi-0.dtd"
   xmlns:inkscape="http://www.inkscape.org/namespaces/inkscape"
   version="1.1"
   width="512"
   height="512"
   x="0"
   y="0"
   viewBox="0 0 25.625 25.625"
   style="enable-background:new 0 0 512 512"
   xml:space="preserve"
   class=""
   id="svg40"
   sodipodi:docname="icon.svg"
   inkscape:version="1.0.2-2 (e86c870879, 2021-01-15)"><metadata
     id="metadata46"><rdf:RDF><cc:Work
         rdf:about=""><dc:format>image/svg+xml</dc:format><dc:type
           rdf:resource="http://purl.org/dc/dcmitype/StillImage" /></cc:Work></rdf:RDF></metadata><defs
     id="defs44" /><sodipodi:namedview
     pagecolor="#ffffff"
     bordercolor="#666666"
     borderopacity="1"
     objecttolerance="10"
     gridtolerance="10"
     guidetolerance="10"
     inkscape:pageopacity="0"
     inkscape:pageshadow="2"
     inkscape:window-width="1920"
     inkscape:window-height="1017"
     id="namedview42"
     showgrid="false"
     inkscape:zoom="1.6601562"
     inkscape:cx="233.11059"
     inkscape:cy="256"
     inkscape:window-x="-8"
     inkscape:window-y="-8"
     inkscape:window-maximized="1"
     inkscape:current-layer="svg40" /><circle
     cx="12.8125"
     cy="12.8125"
     fill="#408fcd"
     shape="circle"
     id="circle2"
     r="12.8125"
     style="fill:#000c66;fill-opacity:1" /><g
     transform="matrix(0.7,0,0,0.7,3.84375,3.8431640625000014)"
     id="g38">
<g
   id="g6">
	<path
   style="fill:#ffffff"
   d="M12.812,0.435C5.736,0.435,0,5.499,0,11.747c0,3.168,1.479,6.028,3.855,8.082   c-0.521,3.01-3.883,4.23-3.652,5.059c2.84,1.175,8.529-1.412,9.918-2.083c0.869,0.164,1.768,0.255,2.691,0.255   c7.076,0,12.813-5.064,12.813-11.313S19.888,0.435,12.812,0.435z M11.904,12.218c0,3.076-1.361,4.802-4.043,5.129   c-0.006,0.001-0.01,0.001-0.016,0.001c-0.029,0-0.061-0.011-0.082-0.031c-0.027-0.023-0.043-0.058-0.043-0.094V15.66   c0-0.046,0.025-0.088,0.064-0.109c1.223-0.667,1.834-1.717,1.865-3.207H7.845c-0.068,0-0.125-0.056-0.125-0.125V8.286   c0-0.069,0.057-0.125,0.125-0.125h3.934c0.068,0,0.125,0.056,0.125,0.125V12.218z M18.869,12.218c0,3.029-1.205,4.563-4.033,5.128   c-0.008,0.001-0.016,0.002-0.024,0.002c-0.029,0-0.057-0.01-0.08-0.028c-0.029-0.023-0.045-0.06-0.045-0.097V15.66   c0-0.046,0.025-0.088,0.064-0.109c1.223-0.667,1.834-1.717,1.865-3.207h-1.804c-0.068,0-0.125-0.056-0.125-0.125V8.286   c0-0.069,0.057-0.125,0.125-0.125h3.932c0.07,0,0.125,0.056,0.125,0.125V12.218z"
   fill="#000000"
   data-original="#030104"
   class=""
   id="path4" />
</g>
<g
   id="g8">
</g>
<g
   id="g10">
</g>
<g
   id="g12">
</g>
<g
   id="g14">
</g>
<g
   id="g16">
</g>
<g
   id="g18">
</g>
<g
   id="g20">
</g>
<g
   id="g22">
</g>
<g
   id="g24">
</g>
<g
   id="g26">
</g>
<g
   id="g28">
</g>
<g
   id="g30">
</g>
<g
   id="g32">
</g>
<g
   id="g34">
</g>
<g
   id="g36">
</g>
</g></svg>
